<svg width="526" height="145" viewBox="0 0 526 145" fill="none" xmlns="http://www.w3.org/2000/svg">
<path d="M482.872 57.2481V104.195C482.872 110.029 483.176 114.648 483.783 118.052C484.452 121.455 485.728 124.22 487.612 126.347C489.557 128.474 492.048 129.902 495.087 130.632C498.126 131.361 502.258 131.725 507.485 131.725H525.808L524.896 144.488H508.123C490.924 144.488 479.468 141.328 473.756 135.007C470.049 130.875 467.77 124.22 466.919 115.043C466.493 110.971 466.281 105.958 466.281 100.002V57.2481H438.021L439.844 44.4858H466.281V10.0275L482.872 5.10493V44.4858H524.987V57.2481H482.872Z" fill="white"/>
<path d="M382.596 41.4776C403.32 41.4776 413.682 54.6045 413.682 80.8584V144.488H397.091V82.864C397.091 75.8143 396.726 70.7701 395.997 67.7315C395.267 64.6928 394.174 62.2011 392.715 60.2564C389.616 56.2454 384.541 54.2399 377.491 54.2399C370.381 54.2399 364.364 56.3062 359.442 60.4387C354.519 64.5713 352.058 70.0409 352.058 76.8474V144.488H335.467V44.4858H350.691L351.602 55.3338C358.226 46.0963 368.558 41.4776 382.596 41.4776Z" fill="white"/>
<path d="M228.719 57.2481V44.4858H273.843V131.725H302.467V144.488H225.529V131.725H257.252V57.2481H228.719Z" fill="white"/>
<path d="M188.062 144.488H174.844C163.115 144.488 154.728 143.272 149.684 140.841C146.767 139.444 144.457 137.833 142.756 136.01C138.259 131.33 135.919 120.999 135.736 105.016V14.5855H105.836V1.82319H152.327V104.195C152.327 116.289 153.421 123.703 155.609 126.438C157.858 129.173 160.653 130.753 163.996 131.178C167.338 131.543 170.742 131.725 174.206 131.725H188.882L188.062 144.488Z" fill="white"/>
<path d="M42.7538 144.488H26.1628V57.2481H0V44.4858H26.1628C26.1628 32.2097 26.649 24.4611 27.6213 21.2402C29.5661 14.859 32.0577 10.3314 35.0964 7.65739C40.9914 2.55246 51.7178 0 67.2757 0H76.9386L76.027 12.7623H66.911C62.2315 12.7623 58.5244 12.975 55.7896 13.4004C53.0548 13.8259 50.6239 14.7374 48.4968 16.1352C44.6681 18.5661 42.7538 23.9749 42.7538 32.3616V44.4858H76.9386V57.2481H42.7538V144.488Z" fill="white"/>
<path d="M254.99 12.6716V21.188C254.99 23.2526 256.137 25.0878 258.431 26.6936C260.782 28.2421 263.105 29.0163 265.399 29.0163C267.693 29.0163 269.987 28.2421 272.281 26.6936C274.632 25.0878 275.808 23.2526 275.808 21.188V12.6716C275.808 10.607 274.632 8.80044 272.281 7.25199C269.987 5.64619 267.693 4.84329 265.399 4.84329C263.105 4.84329 260.782 5.64619 258.431 7.25199C256.137 8.80044 254.99 10.607 254.99 12.6716Z" fill="#F35252"/>
</svg>
